<svg width="12" height="15" viewBox="0 0 12 15" fill="none" xmlns="http://www.w3.org/2000/svg">
<path fill-rule="evenodd" clip-rule="evenodd" d="M2.42063 6.70014C2.04156 3.51535 4.02438 1.27532 7.74125 0C5.46469 2.7718 9.68156 5.77474 9.91406 8.6536C10.4591 7.78099 10.7684 6.61566 10.8297 5.05905C13.6166 9.16308 11.3063 15.8703 5.17281 14.9064C4.60969 14.8181 4.06719 14.6513 3.5725 14.4028C1.33625 13.2812 0 10.8388 0 8.50606C0 7.01926 0.6775 5.69173 1.55438 4.63698C1.67156 5.67032 1.92094 6.44114 2.42063 6.70014Z" fill="#E20919"/>
<path fill-rule="evenodd" clip-rule="evenodd" d="M4.34875 10.9256C3.66656 9.23436 3.76094 6.50391 5.67156 5.54595C5.685 8.68528 8.90812 9.08447 8.31031 12.4359C8.86156 11.8378 9.13875 10.8807 9.18844 10.126C10.0622 12.0437 9.37719 13.5789 8.13188 14.3606C4.34594 16.7364 1.08563 11.9193 3.25344 9.27865C3.31844 9.86732 4.07031 10.7781 4.34875 10.9256Z" fill="url(#paint0_linear_4653_2967)"/>
<defs>
<linearGradient id="paint0_linear_4653_2967" x1="5.11" y1="8.40253" x2="5.11" y2="14.6865" gradientUnits="userSpaceOnUse">
<stop stop-color="#FB6404"/>
<stop offset="1" stop-color="#F2BE10"/>
</linearGradient>
</defs>
</svg>
